<svg width="634" height="106" viewBox="0 0 634 106" fill="none" xmlns="http://www.w3.org/2000/svg">
<path d="M127.871 104.56L127.181 103.75C123.46 103.75 119.71 103.51 116.019 103.15C112.988 102.922 109.979 102.46 107.019 101.77C101.542 100.172 95.9087 99.1658 90.2169 98.7698C83.4223 98.5406 76.6373 99.4533 70.1449 101.47L69.9649 101.65C69.0535 102.561 67.8178 103.072 66.5295 103.072C65.2412 103.072 64.0056 102.561 63.0942 101.65L63.0042 101.38C56.5117 99.3633 49.7268 98.4506 42.9321 98.6798C37.2403 99.0758 31.6075 100.082 26.1304 101.68C23.17 102.37 20.1608 102.832 17.1295 103.06C13.4392 103.42 9.68879 103.66 5.96842 103.66L4.7383 105.1L62.2541 104.35C62.4641 104.35 63.0342 104.83 63.2442 104.95C63.6358 105.139 64.0488 105.28 64.4743 105.37C65.7684 105.66 67.1106 105.66 68.4047 105.37C69.2734 105.172 70.091 104.794 70.8049 104.26L128.261 105.01L127.871 104.56Z" fill="#0E80BD"/>
<path d="M149.316 19.0461H163.537L186.159 47.9901V19.0461H201.16V73.7548H187.899L164.407 43.761V73.7548H149.406L149.316 19.0461Z" fill="#0E80BD"/>
<path d="M233.132 18.6562H247.833L271.235 73.7549H255.033L251.043 64.0069H229.682L225.752 73.7549H209.73L233.132 18.6562ZM246.483 52.1893L240.483 36.6225L234.032 52.1893H246.483Z" fill="#0E80BD"/>
<path d="M279.684 19.0461H305.695C314.096 19.0461 319.916 21.2356 323.697 25.0448C325.346 26.717 326.63 28.7136 327.466 30.908C328.303 33.1024 328.674 35.4467 328.557 37.7922V37.9422C328.676 41.5787 327.648 45.1606 325.618 48.1806C323.588 51.2005 320.659 53.5054 317.246 54.7687L330.357 73.8148H312.776L301.705 57.2582H294.925V73.8148H279.684V19.0461ZM304.975 45.3207C310.166 45.3207 313.166 42.8012 313.166 38.812C313.166 34.5229 310.166 32.3333 304.915 32.3333H294.925V45.4706L304.975 45.3207Z" fill="#0E80BD"/>
<path d="M357.304 18.6562H372.035L395.436 73.7549H379.115L375.035 64.0069H353.824L349.893 73.7549H333.902L357.304 18.6562ZM370.655 52.1893L364.504 36.6225L358.324 52.1893H370.655Z" fill="#0E80BD"/>
<path d="M411.04 53.299L390.039 19.0461H407.41L418.871 38.992L430.242 19.0461H447.283L426.282 53.0591V73.7548H411.04V53.299Z" fill="#0E80BD"/>
<path d="M465.523 18.6562H480.194L503.595 73.7549H487.274L483.254 64.0069H462.042L458.142 73.7549H442.121L465.523 18.6562ZM478.874 52.1893L472.723 36.6225L466.543 52.1893H478.874Z" fill="#0E80BD"/>
<path d="M512.094 19.0461H526.315L549.056 47.9901V19.0461H564.057V73.7548H550.706L527.215 43.761V73.7548H512.214L512.094 19.0461Z" fill="#0E80BD"/>
<path d="M595.89 18.6562H610.561L633.962 73.7549H617.641L613.621 64.0069H592.44L588.509 73.7549H572.488L595.89 18.6562ZM609.241 52.1893L603.24 36.6225L597.06 52.1893H609.241Z" fill="#0E80BD"/>
<path d="M149.316 105.608V83.6228H165.878V87.9419H154.087V92.381H164.467V96.7001H154.087V101.319H166.088V105.608H149.316Z" fill="#F07F22"/>
<path d="M189.786 98.9797C189.231 100.291 188.414 101.474 187.386 102.459C186.308 103.47 185.045 104.265 183.666 104.798C182.164 105.376 180.565 105.661 178.956 105.638H170.375V83.6228H178.956C180.565 83.6002 182.164 83.8853 183.666 84.4627C185.048 84.975 186.314 85.7604 187.386 86.7722C188.407 87.7512 189.223 88.9237 189.786 90.2215C190.355 91.5898 190.641 93.059 190.626 94.5406V94.5406C190.657 96.0625 190.371 97.5742 189.786 98.9797V98.9797ZM185.586 94.6606C185.594 93.7458 185.421 92.8385 185.076 91.9911C184.793 91.188 184.332 90.4598 183.726 89.8616C183.134 89.2769 182.43 88.8178 181.656 88.5118C180.794 88.1832 179.878 88.0204 178.956 88.0319H175.205V101.259H178.956C179.875 101.266 180.788 101.114 181.656 100.809C182.43 100.503 183.134 100.044 183.726 99.4596C184.315 98.8709 184.774 98.1661 185.076 97.39C185.418 96.5417 185.591 95.635 185.586 94.7206V94.6606Z" fill="#F07F22"/>
<path d="M213.022 100.389C212.613 101.52 211.957 102.544 211.101 103.389C210.254 104.226 209.229 104.862 208.101 105.248C206.815 105.672 205.465 105.875 204.111 105.848C202.808 105.981 201.493 105.817 200.262 105.37C199.032 104.924 197.918 104.205 197.003 103.268C196.089 102.331 195.398 101.2 194.982 99.9588C194.566 98.7177 194.436 97.3988 194.6 96.1003V83.6228H199.431V95.9803C199.32 97.4411 199.771 98.8891 200.691 100.029C201.137 100.497 201.679 100.863 202.279 101.101C202.88 101.339 203.526 101.444 204.171 101.409C204.816 101.445 205.461 101.346 206.065 101.119C206.669 100.892 207.22 100.541 207.681 100.089C208.579 98.9737 209.019 97.5583 208.911 96.1302V83.5328H213.772V95.9803C213.787 97.4829 213.533 98.9762 213.022 100.389Z" fill="#F07F22"/>
<path d="M236.239 103.689C235.631 104.178 234.966 104.591 234.259 104.918C233.506 105.286 232.709 105.559 231.888 105.728C230.901 105.923 229.895 106.014 228.888 105.998C227.352 106.01 225.83 105.704 224.418 105.098C223.071 104.545 221.847 103.73 220.818 102.699C219.815 101.66 219.021 100.438 218.478 99.0997C217.909 97.7 217.623 96.2013 217.637 94.6906V94.6906C217.62 93.1698 217.906 91.6608 218.478 90.2515C219.035 88.9209 219.828 87.7016 220.818 86.6522C221.85 85.5961 223.084 84.7595 224.448 84.1927C225.922 83.5884 227.505 83.2924 229.098 83.3229C230.034 83.3056 230.969 83.386 231.888 83.5629C233.413 83.8311 234.858 84.4356 236.119 85.3325C236.715 85.7337 237.268 86.1961 237.769 86.7122L234.769 90.2515C233.985 89.5266 233.107 88.9111 232.158 88.4219C231.22 87.9822 230.195 87.7568 229.158 87.762C228.269 87.7553 227.39 87.9394 226.578 88.3019C225.813 88.6459 225.128 89.1466 224.568 89.7716C223.987 90.4065 223.538 91.1509 223.248 91.9611C222.922 92.8025 222.759 93.6983 222.768 94.6006V94.6006C222.758 96.3798 223.386 98.1037 224.538 99.4596C225.107 100.082 225.789 100.591 226.548 100.959C227.368 101.328 228.259 101.512 229.158 101.499C230.258 101.53 231.35 101.293 232.338 100.809C233.276 100.316 234.143 99.7007 234.919 98.9797L237.919 101.979C237.405 102.593 236.843 103.165 236.239 103.689V103.689Z" fill="#F07F22"/>
<path d="M258.231 105.608L256.221 100.689H246.92L244.91 105.608H240.02L249.44 83.4729H253.91L263.331 105.608H258.231ZM251.57 89.2917L248.57 96.4002H254.57L251.57 89.2917Z" fill="#F07F22"/>
<path d="M276.657 88.0919V105.608H271.827V88.0919H265.137V83.6228H283.348V88.0919H276.657Z" fill="#F07F22"/>
<path d="M287.277 105.608V83.6228H292.108V105.608H287.277Z" fill="#F07F22"/>
<path d="M319.113 98.9795C317.965 101.68 315.814 103.83 313.113 104.978C310.098 106.179 306.737 106.179 303.722 104.978C302.352 104.404 301.101 103.58 300.032 102.549C298.966 101.529 298.1 100.319 297.482 98.9795C296.913 97.5798 296.628 96.0812 296.642 94.5704V94.5704C296.62 93.0463 296.916 91.5343 297.512 90.1313C298.101 88.7966 298.924 87.5778 299.942 86.532C301.007 85.4741 302.272 84.6381 303.662 84.0726C305.149 83.4731 306.74 83.1773 308.343 83.2027C309.946 83.1724 311.538 83.4683 313.023 84.0726C314.401 84.6313 315.655 85.4569 316.713 86.5021C317.756 87.5156 318.583 88.7297 319.143 90.0713C319.722 91.4692 320.017 92.9677 320.013 94.4804V94.4804C320.035 96.0268 319.728 97.5602 319.113 98.9795V98.9795ZM315.033 94.6304C315.047 93.7179 314.884 92.8113 314.553 91.9609C314.242 91.1382 313.773 90.3843 313.173 89.7414C312.56 89.1162 311.838 88.6079 311.043 88.2417C310.2 87.8764 309.291 87.6924 308.373 87.7018C307.454 87.6859 306.543 87.8701 305.702 88.2417C304.915 88.5784 304.21 89.0795 303.632 89.7114C303.033 90.3435 302.564 91.0875 302.252 91.9009C301.94 92.7463 301.778 93.6394 301.772 94.5404C301.778 95.4511 301.94 96.3541 302.252 97.2099C302.581 98.0213 303.06 98.7639 303.662 99.3994C304.258 100.031 304.972 100.54 305.762 100.899C306.604 101.268 307.514 101.452 308.433 101.439C309.351 101.448 310.26 101.264 311.103 100.899C311.898 100.561 312.613 100.061 313.203 99.4294C313.783 98.7881 314.24 98.046 314.553 97.2398C314.882 96.3993 315.045 95.5029 315.033 94.6004V94.6304Z" fill="#F07F22"/>
<path d="M339.722 105.608L329.071 91.6312V105.608H324.301V83.6228H328.771L339.032 97.15V83.6228H343.802V105.608H339.722Z" fill="#F07F22"/>
<path d="M365.498 105.608L363.488 100.689H354.187L352.177 105.608H347.227L356.647 83.4729H361.117L370.538 105.608H365.498ZM358.837 89.2917L355.837 96.4002H361.688L358.837 89.2917Z" fill="#F07F22"/>
<path d="M373.926 105.608V83.6228H378.786V101.229H389.737V105.608H373.926Z" fill="#F07F22"/>
<path d="M403.031 105.608V83.6228H407.862V105.608H403.031Z" fill="#F07F22"/>
<path d="M428.765 105.608L418.114 91.6312V105.608H413.344V83.6228H417.814L428.105 97.15V83.6228H432.875V105.608H428.765Z" fill="#F07F22"/>
<path d="M453.468 101.979C453.094 102.809 452.528 103.539 451.818 104.109C451.074 104.712 450.217 105.16 449.298 105.428C448.236 105.739 447.134 105.891 446.027 105.878C444.328 105.87 442.642 105.565 441.047 104.979C439.418 104.383 437.92 103.476 436.637 102.309L439.547 98.9798C440.463 99.7508 441.47 100.406 442.547 100.929C443.631 101.418 444.809 101.663 445.997 101.649C446.813 101.699 447.626 101.512 448.337 101.109C448.602 100.953 448.82 100.729 448.967 100.46C449.115 100.191 449.188 99.8866 449.178 99.5797C449.185 99.2894 449.123 99.0015 448.998 98.7398C448.842 98.4639 448.614 98.2357 448.337 98.08C447.91 97.8241 447.458 97.613 446.987 97.4501C446.252 97.1815 445.501 96.9611 444.737 96.7902C443.721 96.5364 442.719 96.226 441.737 95.8604C440.919 95.5674 440.151 95.1528 439.457 94.6307C438.825 94.15 438.32 93.5218 437.987 92.8011C437.614 91.9411 437.44 91.0082 437.477 90.0716V90.0716C437.462 89.1338 437.646 88.2035 438.017 87.3422C438.395 86.5395 438.937 85.8245 439.607 85.2426C440.316 84.6479 441.13 84.1902 442.007 83.8929C442.98 83.596 443.991 83.4444 445.007 83.443C446.518 83.426 448.02 83.6695 449.448 84.1628C450.793 84.643 452.05 85.3422 453.168 86.2324L450.648 89.8616C449.71 89.2221 448.703 88.689 447.647 88.272C446.755 87.8966 445.796 87.7029 444.827 87.7021C444.078 87.6473 443.33 87.8368 442.697 88.242C442.48 88.4001 442.304 88.6079 442.184 88.848C442.064 89.088 442.003 89.3533 442.007 89.6217V89.6217C442 89.9409 442.062 90.2579 442.187 90.5515C442.369 90.8458 442.629 91.0844 442.937 91.2414C443.4 91.5014 443.894 91.7029 444.407 91.8412C445.037 92.0512 445.817 92.2612 446.747 92.5011C447.768 92.7664 448.77 93.097 449.748 93.4909C450.551 93.8133 451.3 94.2585 451.968 94.8106C452.551 95.2982 453.013 95.9142 453.318 96.6103C453.636 97.4009 453.789 98.248 453.768 99.0998C453.89 100.07 453.787 101.055 453.468 101.979V101.979Z" fill="#F07F22"/>
<path d="M468.224 88.0919V105.608H463.394V88.0919H456.703V83.6228H474.914V88.0919H468.224Z" fill="#F07F22"/>
<path d="M478.848 105.608V83.6228H483.708V105.608H478.848Z" fill="#F07F22"/>
<path d="M499.16 88.0919V105.608H494.3V88.0919H487.609V83.6228H505.851V88.0919H499.16Z" fill="#F07F22"/>
<path d="M527.697 100.389C527.278 101.522 526.611 102.546 525.747 103.389C524.907 104.236 523.879 104.873 522.747 105.248C521.46 105.672 520.111 105.875 518.756 105.848C517.452 105.986 516.134 105.827 514.901 105.382C513.667 104.938 512.551 104.219 511.636 103.281C510.72 102.342 510.029 101.209 509.615 99.965C509.201 98.7213 509.075 97.3999 509.246 96.1003V83.6228H514.076V95.9803C513.965 97.4411 514.416 98.8891 515.336 100.029C515.779 100.501 516.321 100.868 516.922 101.107C517.524 101.345 518.17 101.448 518.816 101.409C519.456 101.444 520.097 101.345 520.696 101.118C521.296 100.89 521.841 100.54 522.296 100.089C523.216 98.9842 523.668 97.5637 523.557 96.1302V83.5328H528.387V95.9803C528.421 97.4793 528.187 98.9723 527.697 100.389V100.389Z" fill="#F07F22"/>
<path d="M543.262 88.0919V105.608H538.401V88.0919H531.711V83.6228H549.952V88.0919H543.262Z" fill="#F07F22"/>
<path d="M553.859 105.608V83.6228H558.72V105.608H553.859Z" fill="#F07F22"/>
<path d="M585.715 98.9795C585.148 100.326 584.322 101.549 583.285 102.579C582.22 103.637 580.956 104.473 579.565 105.038C576.56 106.237 573.209 106.237 570.204 105.038C568.826 104.48 567.572 103.654 566.514 102.609C565.454 101.58 564.616 100.345 564.054 98.9795C563.476 97.5816 563.18 96.0831 563.184 94.5704V94.5704C563.172 93.0442 563.479 91.5324 564.084 90.1313C564.652 88.7848 565.477 87.5621 566.514 86.532C567.573 85.481 568.827 84.6457 570.204 84.0726C571.7 83.4691 573.302 83.1733 574.915 83.2027C576.518 83.1724 578.11 83.4683 579.595 84.0726C582.302 85.2125 584.455 87.3654 585.595 90.0713C586.164 91.4711 586.45 92.9697 586.435 94.4804V94.4804C586.515 96.014 586.269 97.5471 585.715 98.9795ZM581.545 94.5704C581.545 93.6592 581.382 92.7552 581.065 91.9009C580.743 91.084 580.275 90.3321 579.685 89.6814C579.072 89.0562 578.35 88.548 577.555 88.1817C576.704 87.8262 575.792 87.6431 574.87 87.6431C573.948 87.6431 573.035 87.8262 572.185 88.1817C571.407 88.535 570.704 89.0339 570.114 89.6514C568.918 90.9732 568.264 92.6978 568.284 94.4804V94.4804C568.275 95.3925 568.438 96.2981 568.764 97.1499C569.083 97.9596 569.551 98.7023 570.144 99.3394C570.757 99.9646 571.479 100.473 572.275 100.839C573.115 101.211 574.026 101.395 574.945 101.379C575.835 101.39 576.718 101.217 577.539 100.871C578.36 100.525 579.101 100.014 579.715 99.3694C580.295 98.7281 580.753 97.986 581.065 97.1799C581.379 96.3352 581.542 95.4416 581.545 94.5404V94.5704Z" fill="#F07F22"/>
<path d="M606.326 105.608L595.675 91.6312V105.608H591.055V83.6228H595.525L605.816 97.15V83.6228H610.586V105.608H606.326Z" fill="#F07F22"/>
<path d="M631.021 101.979C630.647 102.809 630.082 103.539 629.371 104.109C628.612 104.706 627.747 105.154 626.821 105.428C625.77 105.742 624.677 105.893 623.581 105.878C621.895 105.883 620.22 105.598 618.63 105.039C617.014 104.435 615.527 103.529 614.25 102.369L617.25 98.9498C618.169 99.717 619.176 100.372 620.25 100.899C621.345 101.387 622.532 101.633 623.731 101.619C624.546 101.662 625.357 101.475 626.071 101.079C626.331 100.919 626.545 100.693 626.693 100.425C626.84 100.157 626.915 99.8555 626.911 99.5497V99.5497C626.918 99.2594 626.857 98.9715 626.731 98.7098C626.575 98.4339 626.347 98.2057 626.071 98.05C625.644 97.7941 625.191 97.583 624.721 97.4201C623.983 97.1595 623.232 96.9392 622.471 96.7602C621.454 96.5064 620.452 96.196 619.47 95.8304C618.643 95.5376 617.865 95.1232 617.16 94.6007C616.536 94.1118 616.033 93.4857 615.69 92.7711C615.282 91.8972 615.067 90.9459 615.06 89.9816V89.9816C615.04 89.0403 615.235 88.1067 615.63 87.2522C615.997 86.4509 616.529 85.7356 617.19 85.1526C617.915 84.5635 618.737 84.1066 619.62 83.8029C620.592 83.5038 621.604 83.3522 622.621 83.353C624.131 83.3384 625.633 83.5818 627.061 84.0728C628.407 84.553 629.664 85.2523 630.781 86.1424L628.261 89.7717C627.315 89.1453 626.31 88.6128 625.261 88.182C624.311 87.7867 623.289 87.5926 622.261 87.6121C621.52 87.5574 620.782 87.747 620.16 88.152C619.94 88.3086 619.759 88.5154 619.634 88.7552C619.509 88.9951 619.443 89.2612 619.44 89.5317C619.442 89.8532 619.514 90.1705 619.65 90.4615C619.832 90.7558 620.092 90.9944 620.4 91.1514C620.864 91.4114 621.358 91.6129 621.871 91.7513C622.471 91.9612 623.251 92.1712 624.211 92.4111C625.231 92.6764 626.233 93.007 627.211 93.4009C628.006 93.723 628.745 94.1684 629.401 94.7207C629.984 95.2155 630.455 95.829 630.781 96.5203C631.099 97.3109 631.252 98.158 631.231 99.0098C631.381 100.003 631.309 101.017 631.021 101.979V101.979Z" fill="#F07F22"/>
<path d="M17.9929 90.6713L19.583 90.0714C15.7157 82.1105 13.9344 73.2979 14.4064 64.4604C14.8784 55.6229 17.5881 47.0501 22.2814 39.5461C26.9748 32.042 33.4978 25.8528 41.2388 21.5588C48.9798 17.2648 57.685 15.0069 66.5378 14.9968C75.3951 14.9747 84.1123 17.2071 91.8681 21.4837C99.6238 25.7603 106.163 31.9404 110.869 39.4417C115.575 46.943 118.294 55.5186 118.769 64.3605C119.243 73.2025 117.459 82.0197 113.582 89.9815L115.173 90.5813C116.073 90.9113 117.003 91.2112 117.933 91.4811C121.641 83.7563 123.558 75.2952 123.543 66.7272C123.528 58.1593 121.58 49.705 117.845 41.9934C114.11 34.2818 108.684 27.5113 101.97 22.1857C95.2562 16.8602 87.4275 13.1166 79.0665 11.2334C70.7054 9.35026 62.0272 9.37606 53.6776 11.3089C45.3279 13.2417 37.5216 17.0318 30.8395 22.3972C24.1574 27.7626 18.7715 34.5652 15.0825 42.2988C11.3934 50.0325 9.49625 58.4982 9.53203 67.0662C9.48743 75.5312 11.354 83.8973 14.9926 91.5411C16.0427 91.3012 16.9728 91.0012 17.9929 90.6713Z" fill="#0E80BD"/>
<path d="M15.2014 34.1948L14.0013 33.3548C14.35 33.2941 14.6852 33.1722 14.9914 32.9948C15.2575 32.8039 15.4906 32.5708 15.6814 32.3047C15.7773 32.1744 15.8579 32.0335 15.9214 31.8847C15.9457 31.7659 15.9457 31.6434 15.9214 31.5247C15.9382 31.4254 15.9382 31.3239 15.9214 31.2246C15.8891 31.135 15.8251 31.0603 15.7414 31.0146C15.6336 30.9838 15.5192 30.9838 15.4114 31.0146H14.9914L14.5413 31.2546L14.0013 31.5847C13.6187 31.8511 13.1749 32.0162 12.7112 32.0647C12.3034 32.0999 11.8971 31.9823 11.5711 31.7347C11.3111 31.5778 11.1026 31.3484 10.9711 31.0746C10.8275 30.8302 10.7646 30.5468 10.7911 30.2646C10.7927 29.9655 10.8539 29.6697 10.9711 29.3945C11.0894 29.0834 11.251 28.7905 11.4511 28.5245C11.5955 28.2323 11.777 27.96 11.9912 27.7144C12.151 27.5217 12.3441 27.3591 12.5612 27.2344L13.7013 28.0144C13.559 28.0432 13.4254 28.1048 13.3112 28.1944L12.9812 28.4345L12.6512 28.7045L12.4112 29.0345C12.3187 29.1511 12.2476 29.2831 12.2012 29.4245C12.1742 29.543 12.1742 29.6661 12.2012 29.7845C12.1204 29.8428 12.0495 29.9138 11.9912 29.9946L12.1712 30.2046C12.2697 30.2287 12.3726 30.2287 12.4712 30.2046H12.8312L13.2212 29.9946H13.8513C14.0606 29.8309 14.2932 29.6995 14.5413 29.6045C14.7502 29.5034 14.9725 29.4327 15.2014 29.3945C15.409 29.3499 15.6238 29.3499 15.8314 29.3945C16.0573 29.457 16.2705 29.5586 16.4615 29.6945C16.733 29.8691 16.9592 30.1056 17.1215 30.3846C17.238 30.6389 17.2994 30.9149 17.3015 31.1946C17.2754 31.4935 17.2046 31.7868 17.0915 32.0647C16.9562 32.3831 16.7851 32.6851 16.5815 32.9648C16.3855 33.2442 16.1646 33.5053 15.9214 33.7448C15.7055 33.9303 15.4627 34.082 15.2014 34.1948V34.1948Z" fill="#0E80BD"/>
<path d="M23.1574 24.6256L22.0174 25.9157L20.0672 25.5557H19.6772H19.3472C19.2498 25.5236 19.1446 25.5236 19.0472 25.5557C18.964 25.5841 18.891 25.6362 18.8372 25.7057L18.5971 26.0057L20.4873 27.6558L19.4972 28.7659L14.5469 24.4156L16.107 22.6455C17.157 21.4754 18.1471 21.2654 19.1072 22.0454C19.2715 22.1938 19.4131 22.3657 19.5272 22.5555C19.6186 22.7341 19.6794 22.9268 19.7072 23.1255C19.7372 23.3244 19.7372 23.5267 19.7072 23.7255C19.6646 23.9437 19.5941 24.1555 19.4972 24.3556V24.3556C19.596 24.3336 19.6984 24.3336 19.7972 24.3556H20.5173L20.9973 24.2956L23.1574 24.6256ZM16.377 23.9956L17.7571 25.1956L18.1771 24.7156C18.3633 24.5213 18.4703 24.2646 18.4771 23.9956C18.4762 23.8634 18.4461 23.733 18.3891 23.6137C18.332 23.4945 18.2494 23.3892 18.1471 23.3055C17.7271 22.9155 17.2771 23.0055 16.827 23.5155L16.377 23.9956Z" fill="#0E80BD"/>
<path d="M28.9288 19.4959L27.7287 20.5457L26.4086 19.7659L24.6385 21.3256L25.2385 22.7053L24.0085 23.7851L21.4883 17.2464L22.8084 16.1066L28.9288 19.4959ZM25.3886 19.136L23.3784 17.9963L22.9284 17.6363C23.0268 17.7429 23.1078 17.8644 23.1684 17.9963L24.0085 20.2458L25.3886 19.136Z" fill="#0E80BD"/>
<path d="M36.9007 14.157L35.6706 14.9968L33.5404 11.6975C33.3004 11.3376 33.0604 10.9477 32.8204 10.4978C32.9704 10.8877 33.0604 11.1576 33.1204 11.3376L34.2305 15.9266L33.2104 16.5865L29.4902 13.5871L28.8001 13.0172L29.7602 14.427L31.7403 17.4263L30.6002 18.1462L27 12.6873L28.8301 11.5176L32.1003 14.067C32.352 14.2632 32.5832 14.4843 32.7904 14.7269V14.7269C32.7904 14.397 32.5804 14.067 32.4904 13.7971L31.5303 9.8079L33.3004 8.66814L36.9007 14.157Z" fill="#0E80BD"/>
<path d="M44.7004 10.5593L43.2003 11.2192L42.1803 10.0794L40.0501 11.0392L40.2301 12.5389L38.76 13.1988L38.25 6.24021L39.8401 5.52036L44.7004 10.5593ZM41.4002 9.1796L39.8401 7.43996L39.5101 6.96006C39.5241 7.14976 39.5241 7.34024 39.5101 7.52994L39.7801 9.86946L41.4002 9.1796Z" fill="#0E80BD"/>
<path d="M49.5529 2.13016L48.7428 6.81047L49.4329 9.06062L47.9928 9.48065L47.3327 7.2605L44.0625 3.81027L45.6826 3.30024L47.4227 5.34037L47.7227 5.8204C47.7108 5.64059 47.7108 5.46018 47.7227 5.28037L47.9928 2.61019L49.5529 2.13016Z" fill="#0E80BD"/>
<path d="M57.4011 7.26062L53.5309 7.98067L52.3008 1.53024L56.051 0.840195L56.2611 2.01027L54.0109 2.4303L54.2809 3.8704L56.4111 3.48037L56.6211 4.65045L54.5209 5.07048L54.791 6.54058L57.1911 6.00054L57.4011 7.26062Z" fill="#0E80BD"/>
<path d="M64.782 0L63.0119 6.72045H61.3317L58.6016 0.45003H60.1917L61.9018 4.92033C61.9816 5.12416 62.0419 5.33512 62.0818 5.55037V5.55037C62.0553 5.32112 62.0553 5.08957 62.0818 4.86032L63.2519 0H64.782Z" fill="#0E80BD"/>
<path d="M73.1745 6.90046H71.5544L71.1644 5.40036H68.8242L68.2542 6.84046H66.6641L69.4243 0H71.1944L73.1745 6.90046ZM70.8644 4.17028L70.2943 1.92013C70.2754 1.72056 70.2754 1.51965 70.2943 1.32009V1.32009C70.2726 1.51644 70.222 1.70852 70.1443 1.89013L69.3042 4.08027L70.8644 4.17028Z" fill="#0E80BD"/>
<path d="M82.5343 6.00042C82.4096 6.72181 82.0255 7.37271 81.4543 7.83054C81.1783 8.01138 80.8659 8.12931 80.5393 8.17597C80.2126 8.22263 79.8797 8.19689 79.5641 8.10056C79.2447 8.02081 78.9407 7.88904 78.6641 7.71054L78.9941 6.36045C79.191 6.59128 79.4521 6.75837 79.7441 6.84048C80.4042 6.84048 80.8542 6.57046 81.0942 5.6104L81.9943 1.80014L83.4344 2.13016L82.5343 6.00042Z" fill="#0E80BD"/>
<path d="M90.0004 11.2188L88.4703 10.679V9.14926L86.2502 8.36942L85.3201 9.59917L84 8.9993L88.4703 3.6004L90.1504 4.20028L90.0004 11.2188ZM88.5903 7.9795V5.63998C88.5658 5.45081 88.5658 5.25927 88.5903 5.0701V5.0701C88.5074 5.24953 88.4069 5.42033 88.2903 5.58L87.0002 7.40962L88.5903 7.9795Z" fill="#0E80BD"/>
<path d="M99.4357 8.49063L95.5955 11.3108L94.5454 13.411L93.1953 12.7509L94.2454 10.6808V5.94046L95.7755 6.69051L95.6255 9.36069C95.6134 9.5405 95.6134 9.72092 95.6255 9.90072V9.90072C95.7339 9.75081 95.8656 9.61914 96.0155 9.5107L98.0856 7.80058L99.4357 8.49063Z" fill="#0E80BD"/>
<path d="M103.025 18.6562L101.705 17.7564L102.005 16.2867L100.175 14.997L98.9751 15.9568L97.625 14.997L103.295 10.8878L104.765 11.8476L103.025 18.6562ZM102.485 15.1469L103.115 12.9274C103.115 12.7474 103.265 12.5675 103.355 12.3575C103.239 12.5191 103.097 12.6608 102.935 12.7774L101.105 14.2471L102.485 15.1469Z" fill="#0E80BD"/>
<path d="M111.744 18.9573L110.334 17.7272L106.794 21.7775L105.684 20.8174L109.194 16.7672L107.784 15.5371L108.564 14.637L112.524 17.9972L111.744 18.9573Z" fill="#0E80BD"/>
<path d="M113.614 28.7641L112.624 27.6543L114.604 25.8847L112.774 23.995L110.794 25.7947L109.773 24.6849L114.694 20.3058L115.684 21.3856L113.734 23.1552L115.564 25.1648L117.514 23.4252L118.504 24.5349L113.614 28.7641Z" fill="#0E80BD"/>
<path d="M117.59 34.2548L115.34 31.0146L120.74 27.2344L122.93 30.2346L121.94 30.9246L120.59 29.0345L119.39 29.8746L120.62 31.6147L119.66 32.3047L118.4 30.5646L117.17 31.4047L118.58 33.4448L117.59 34.2548Z" fill="#0E80BD"/>
<path d="M27.3817 86.7422C22.7405 77.4432 21.5586 66.7973 24.0473 56.7074C26.5359 46.6174 32.533 37.741 40.9663 31.6649C49.3997 25.5888 59.7198 22.7091 70.0818 23.5403C80.4439 24.3716 90.1725 28.8598 97.5287 36.2026C104.056 42.6849 108.359 51.069 109.82 60.1499C111.281 69.2307 109.824 78.5408 105.66 86.7422L109.86 88.5118C113.19 81.8541 114.916 74.5099 114.9 67.0662C114.586 54.4475 109.351 42.4513 100.312 33.6376C91.2735 24.8239 79.1471 19.8907 66.5206 19.8907C53.8941 19.8907 41.7676 24.8239 32.7289 33.6376C23.6902 42.4513 18.4551 54.4475 18.1407 67.0662C18.1248 74.5099 19.8509 81.8541 23.1812 88.5118L27.3817 86.7422Z" fill="#0E80BD"/>
<path d="M124.848 100.629C121.393 100.24 117.986 99.5067 114.677 98.4397C108.677 96.6401 102.886 94.8105 96.9458 93.1608C91.1808 91.3957 85.0682 91.0866 79.1546 92.261C75.9478 92.989 72.8987 94.2896 70.154 96.1002C69.3468 96.6291 68.5751 97.2102 67.8438 97.8398C67.6338 98.0198 67.3338 98.4397 67.0938 98.5597C67.7838 98.2597 68.5038 97.9898 69.2239 97.7499C78.0744 95.2687 87.3823 94.8886 96.4057 96.6401C99.9191 97.1506 103.404 97.8414 106.846 98.7097C111.599 100.216 116.496 101.221 121.457 101.709C122.886 101.799 124.319 101.799 125.748 101.709L124.848 100.629Z" fill="#0E80BD"/>
<path d="M65.4078 97.8399C64.6512 97.1658 63.8493 96.5445 63.0076 95.9802C60.2592 94.1699 57.212 92.86 54.007 92.111C48.1022 90.9529 42.0033 91.2618 36.2458 93.0109C30.2454 94.6605 24.245 96.4901 18.4847 98.2598C15.1703 99.344 11.7514 100.078 8.28397 100.449L7.50392 101.469C8.92847 101.623 10.3624 101.673 11.7942 101.619C16.7677 101.145 21.6761 100.14 26.4352 98.6197C29.8554 97.7799 33.3356 97.09 36.8459 96.5801C45.8816 94.8381 55.1994 95.2284 64.0577 97.7199C64.7777 97.9598 65.4978 98.2298 66.1878 98.5297C66.0078 98.4397 65.6178 98.0198 65.4078 97.8399Z" fill="#0E80BD"/>
<path d="M48.391 82.3931C50.3291 82.3826 52.2651 82.523 54.1814 82.813V57.1383C54.1814 53.399 54.0914 50.6096 53.9113 48.77H54.0013C54.7899 50.2477 55.6614 51.6797 56.6115 53.0591L76.5029 83.2629C79.1622 82.6725 81.8793 82.3808 84.6034 82.3931C86.3585 82.3984 88.1118 82.5086 89.8537 82.723V33.8031H78.873V62.4472C78.8201 64.82 78.9102 67.1938 79.143 69.5557H78.993C78.213 68.176 77.3429 66.7663 76.3828 65.3266L55.7415 33.8031H43.1406V82.723C44.8826 82.5086 46.6358 82.3984 48.391 82.3931V82.3931Z" fill="#F07F22"/>
<path fill-rule="evenodd" clip-rule="evenodd" d="M41.041 42.7713V37.0725C36.6517 40.7435 33.1199 45.3312 30.6942 50.5131C28.2684 55.6949 27.0075 61.3451 27.0001 67.0663C26.9878 73.4022 28.5332 79.644 31.5004 85.2426C32.8505 84.8227 34.2306 84.4327 35.6106 84.0728C31.9487 77.5253 30.4936 69.9727 31.4609 62.5338C32.4281 55.0949 35.7663 48.1652 40.981 42.7713H41.041Z" fill="#0E80BD"/>
<path fill-rule="evenodd" clip-rule="evenodd" d="M56.9994 31.7347L57.8695 33.0247C64.1329 31.4566 70.7027 31.6017 76.8907 33.4448V31.7347H83.9112C78.5282 29.1293 72.6254 27.7759 66.6451 27.7759C60.6647 27.7759 54.7619 29.1293 49.3789 31.7347H56.9994Z" fill="#0E80BD"/>
<path fill-rule="evenodd" clip-rule="evenodd" d="M92.0234 37.0725V42.7713C97.2178 48.1584 100.544 55.0714 101.511 62.4912C102.477 69.911 101.034 77.4451 97.3938 83.9828C98.8039 84.3428 100.154 84.7327 101.504 85.1526C104.471 79.554 106.017 73.3122 106.004 66.9763C105.991 61.275 104.733 55.6453 102.318 50.4802C99.9037 45.3152 96.3902 40.7395 92.0234 37.0725V37.0725Z" fill="#0E80BD"/>
<path fill-rule="evenodd" clip-rule="evenodd" d="M76.7741 62.0873V38.6021C73.4899 37.4328 70.0296 36.8343 66.5434 36.8325C64.5279 36.8252 62.5171 37.0263 60.543 37.4323L76.7741 62.0873Z" fill="#0E80BD"/>
<path fill-rule="evenodd" clip-rule="evenodd" d="M41.0489 50.6597C37.913 55.4636 36.2208 61.0657 36.1729 66.8018C36.125 72.538 37.7235 78.1676 40.7788 83.0231H41.0489V50.6597Z" fill="#0E80BD"/>
<path fill-rule="evenodd" clip-rule="evenodd" d="M92.0234 50.6597V82.9931H92.2935C95.3488 78.1376 96.9473 72.508 96.8994 66.7719C96.8515 61.0357 95.1593 55.4336 92.0234 50.6297V50.6597Z" fill="#0E80BD"/>
<path fill-rule="evenodd" clip-rule="evenodd" d="M56.3008 56.2984V83.2929C58.3748 83.7325 60.389 84.4171 62.3012 85.3325C63.8572 85.9581 65.2973 86.8401 66.5615 87.9419C67.0715 87.0121 70.2517 85.6024 70.7918 85.3325C71.976 84.7908 73.1996 84.3396 74.452 83.9827L56.3008 56.2984Z" fill="#0E80BD"/>
<path d="M5.5625 40.1622L7.57263 40.0722L8.65271 38.3621L9.34275 40.2522L11.3229 40.7022L9.73278 41.9623L9.88279 43.9724L8.20268 42.8924L6.34255 43.6424L6.88259 41.6923L5.5625 40.1622Z" fill="#F07F22"/>
<path d="M1.81248 51.1101L3.76262 50.6601L4.51267 48.8L5.56274 50.5101L7.57287 50.6601L6.25278 52.1602L6.73281 54.1103L4.87269 53.3003L3.16257 54.3803L3.34259 52.3702L1.81248 51.1101Z" fill="#F07F22"/>
<path d="M0 62.5078L1.86012 61.7277L2.28015 59.7776L3.60024 61.2777L5.58037 61.0677L4.5603 62.7778L5.37036 64.6379L3.42023 64.1579L1.92013 65.508L1.74012 63.5278L0 62.5078Z" fill="#F07F22"/>
<path d="M0.214844 74.0855L1.92496 72.9755L1.98496 70.9653L3.54507 72.2554L5.4952 71.6854L4.74515 73.5455L5.88522 75.2256L3.87509 75.1056L2.64501 76.6957L2.13497 74.7456L0.214844 74.0855Z" fill="#F07F22"/>
<path d="M2.46095 85.4233L3.93105 84.0432L3.66103 82.0631L5.40115 83.0232L7.23127 82.1531L6.84125 84.1333L8.25134 85.5433L6.24121 85.7834L5.31114 87.5835L4.44109 85.7534L2.46095 85.4233Z" fill="#F07F22"/>
<path d="M127.491 40.1622L125.481 40.0722L124.431 38.3621L123.711 40.2522L121.73 40.7022L123.321 41.9623L123.171 43.9724L124.851 42.8924L126.711 43.6424L126.201 41.6923L127.491 40.1622Z" fill="#F07F22"/>
<path d="M131.245 51.1101L129.295 50.6601L128.545 48.8L127.495 50.5101L125.484 50.6601L126.834 52.1602L126.324 54.1103L128.185 53.3003L129.895 54.3803L129.715 52.3702L131.245 51.1101Z" fill="#F07F22"/>
<path d="M133.03 62.5078L131.169 61.7277L130.779 59.7776L129.459 61.2777L127.449 61.0677L128.499 62.7778L127.659 64.6379L129.609 64.1579L131.109 65.508L131.289 63.5278L133.03 62.5078Z" fill="#F07F22"/>
<path d="M132.815 74.0855L131.105 72.9755L131.045 70.9653L129.485 72.2554L127.535 71.6854L128.285 73.5455L127.145 75.2256L129.155 75.1056L130.385 76.6957L130.895 74.7456L132.815 74.0855Z" fill="#F07F22"/>
<path d="M130.568 85.4233L129.098 84.0432L129.368 82.0631L127.628 83.0232L125.797 82.1531L126.187 84.1333L124.777 85.5433L126.787 85.7834L127.748 87.5835L128.588 85.7534L130.568 85.4233Z" fill="#F07F22"/>
<path d="M127.84 104.969L127.151 104.156C123.431 104.156 119.682 103.915 115.992 103.554C112.962 103.325 109.953 102.862 106.994 102.169C101.518 100.564 95.8866 99.5549 90.1962 99.1575C83.4033 98.9274 76.6201 99.8435 70.1292 101.868L69.9493 102.048C69.0381 102.962 67.8028 103.475 66.5148 103.475C65.2268 103.475 63.9915 102.962 63.0803 102.048L62.9903 101.777C56.4995 99.7531 49.7163 98.8371 42.9234 99.0672C37.233 99.4645 31.6016 100.474 26.1259 102.078C23.1662 102.771 20.1578 103.234 17.1273 103.463C13.4378 103.825 9.6884 104.066 5.96896 104.066L4.73915 105.511L62.2404 104.758C62.4504 104.758 63.0203 105.24 63.2303 105.36C63.6218 105.55 64.0347 105.692 64.4601 105.782C65.7539 106.073 67.0957 106.073 68.3895 105.782C69.258 105.583 70.0754 105.203 70.7891 104.668L128.23 105.421L127.84 104.969Z" fill="#0E80BD"/>
<path d="M17.9973 91.0275L19.5871 90.4253C15.7207 82.4331 13.9399 73.5859 14.4117 64.7137C14.8836 55.8415 17.5926 47.235 22.2848 39.7015C26.9769 32.168 33.4984 25.9544 41.2374 21.6435C48.9764 17.3327 57.6794 15.0659 66.53 15.0558C75.3851 15.0335 84.1 17.2747 91.8539 21.5681C99.6077 25.8616 106.145 32.0659 110.85 39.5967C115.555 47.1275 118.273 55.7367 118.748 64.6134C119.222 73.4901 117.438 82.3419 113.563 90.3349L115.153 90.9372C116.052 91.2684 116.982 91.5695 117.912 91.8405C121.619 84.0854 123.536 75.591 123.521 66.9894C123.506 58.3878 121.559 49.9003 117.824 42.1584C114.09 34.4165 108.666 27.6194 101.953 22.2729C95.2411 16.9264 87.4144 13.1681 79.0555 11.2776C70.6966 9.38704 62.0206 9.41293 53.673 11.3533C45.3254 13.2938 37.5211 17.0987 30.8407 22.4852C24.1603 27.8717 18.7757 34.701 15.0876 42.465C11.3995 50.2291 9.50282 58.7281 9.53859 67.3296C9.494 75.828 11.3601 84.2269 14.9978 91.9007C16.0476 91.6599 16.9775 91.3587 17.9973 91.0275Z" fill="#0E80BD"/>
<path d="M15.2076 34.3274L14.0078 33.4843C14.3564 33.4234 14.6915 33.301 14.9976 33.1229C15.2637 32.9314 15.4967 32.6975 15.6875 32.4304C15.7834 32.2996 15.8639 32.1581 15.9275 32.0088C15.9517 31.8896 15.9517 31.7667 15.9275 31.6475C15.9443 31.5478 15.9443 31.446 15.9275 31.3463C15.8951 31.2564 15.8311 31.1814 15.7475 31.1356C15.6397 31.1046 15.5254 31.1046 15.4176 31.1356H14.9976L14.5477 31.3765L14.0078 31.7077C13.6253 31.975 13.1815 32.1408 12.718 32.1895C12.3102 32.2248 11.904 32.1067 11.5781 31.8582C11.3182 31.7007 11.1097 31.4705 10.9782 31.1958C10.8347 30.9505 10.7717 30.666 10.7983 30.3828C10.7998 30.0826 10.861 29.7857 10.9782 29.5095C11.0965 29.1972 11.2581 28.9033 11.4582 28.6363C11.6025 28.3431 11.7839 28.0698 11.9981 27.8233C12.1579 27.6299 12.3509 27.4667 12.568 27.3415L13.7078 28.1244C13.5656 28.1532 13.432 28.2151 13.3179 28.3051L12.9879 28.546L12.658 28.817L12.418 29.1482C12.3255 29.2652 12.2545 29.3977 12.208 29.5396C12.181 29.6586 12.181 29.7821 12.208 29.901C12.1273 29.9595 12.0564 30.0307 11.9981 30.1118L12.178 30.3225C12.2766 30.3468 12.3795 30.3468 12.478 30.3225H12.8379L13.2279 30.1118H13.8578C14.0671 29.9476 14.2996 29.8156 14.5477 29.7203C14.7565 29.6188 14.9787 29.5478 15.2076 29.5095C15.4152 29.4648 15.6299 29.4648 15.8375 29.5095C16.0633 29.5723 16.2765 29.6742 16.4674 29.8106C16.7388 29.9858 16.965 30.2232 17.1273 30.5032C17.2438 30.7584 17.3051 31.0355 17.3073 31.3162C17.2812 31.6162 17.2104 31.9106 17.0973 32.1895C16.962 32.509 16.7909 32.8121 16.5874 33.0928C16.3915 33.3733 16.1706 33.6353 15.9275 33.8757C15.7116 34.0619 15.4689 34.2142 15.2076 34.3274Z" fill="#0E80BD"/>
<path d="M23.1563 24.7218L22.0165 26.0166L20.0668 25.6553H19.6768H19.3469C19.2495 25.6231 19.1443 25.6231 19.0469 25.6553C18.9638 25.6838 18.8908 25.7361 18.837 25.8058L18.597 26.1069L20.4867 27.7631L19.4969 28.8772L14.5476 24.511L16.1074 22.7344C17.1572 21.5601 18.1471 21.3493 19.1069 22.1322C19.2712 22.2812 19.4127 22.4537 19.5269 22.6441C19.6182 22.8234 19.679 23.0168 19.7068 23.2162C19.7368 23.4158 19.7368 23.6188 19.7068 23.8185C19.6643 24.0374 19.5937 24.25 19.4969 24.4508C19.5956 24.4287 19.698 24.4287 19.7968 24.4508H20.5167L20.9966 24.3906L23.1563 24.7218ZM16.3773 24.0895L17.7571 25.2939L18.1771 24.8121C18.3632 24.6172 18.4702 24.3595 18.477 24.0895C18.4761 23.9568 18.446 23.8259 18.389 23.7062C18.3319 23.5865 18.2494 23.4809 18.1471 23.3969C17.7271 23.0054 17.2772 23.0958 16.8273 23.6077L16.3773 24.0895Z" fill="#0E80BD"/>
<path d="M28.9155 19.5724L27.7157 20.6263L26.3959 19.8434L24.6261 21.4092L25.2261 22.7943L23.9962 23.8783L21.4766 17.314L22.7964 16.1697L28.9155 19.5724ZM25.376 19.211L23.3663 18.0668L22.9164 17.7054C23.0148 17.8125 23.0958 17.9344 23.1564 18.0668L23.9962 20.3251L25.376 19.211Z" fill="#0E80BD"/>
<path d="M36.8944 14.2126L35.6646 15.0558L33.5349 11.7435C33.2949 11.3821 33.055 10.9907 32.815 10.539C32.965 10.9305 33.055 11.2015 33.115 11.3821L34.2248 15.9892L33.2049 16.6517L29.4855 13.6405L28.7956 13.0684L29.7555 14.4836L31.7352 17.4948L30.5953 18.2175L26.9959 12.7372L28.8256 11.5628L32.0951 14.1223C32.3467 14.3193 32.5778 14.5412 32.785 14.7848C32.785 14.4535 32.575 14.1223 32.485 13.8513L31.5252 9.84645L33.2949 8.70221L36.8944 14.2126Z" fill="#0E80BD"/>
<path d="M44.6932 10.5994L43.1934 11.2619L42.1735 10.1176L40.0439 11.0812L40.2238 12.5868L38.7541 13.2492L38.2441 6.26333L39.8339 5.54065L44.6932 10.5994ZM41.3937 9.21427L39.8339 7.4678L39.5039 6.98601C39.518 7.17646 39.518 7.36768 39.5039 7.55813L39.7739 9.90684L41.3937 9.21427Z" fill="#0E80BD"/>
<path d="M49.5523 2.13788L48.7424 6.8353L49.4323 9.09367L47.9926 9.51524L47.3327 7.28697L44.0632 3.82413L45.6829 3.31223L47.4226 5.35983L47.7226 5.84161C47.7107 5.66114 47.7107 5.48007 47.7226 5.2996L47.9926 2.61967L49.5523 2.13788Z" fill="#0E80BD"/>
<path d="M57.3815 7.28722L53.5121 8.0099L52.2823 1.53589L56.0317 0.843323L56.2417 2.01768L53.992 2.43924L54.262 3.8846L56.3917 3.49315L56.6016 4.6675L54.502 5.08907L54.7719 6.56454L57.1715 6.02253L57.3815 7.28722Z" fill="#0E80BD"/>
<path d="M64.7603 0L62.9906 6.74501H61.3108L58.5812 0.451675H60.171L61.8807 4.93831C61.9606 5.14289 62.0208 5.35462 62.0607 5.57066C62.0342 5.34057 62.0342 5.10818 62.0607 4.87809L63.2305 0H64.7603Z" fill="#0E80BD"/>
<path d="M73.1588 6.92568H71.539L71.1491 5.4201H68.8094L68.2395 6.86546H66.6498L69.4093 0H71.1791L73.1588 6.92568ZM70.8491 4.18552L70.2792 1.92715C70.2603 1.72685 70.2603 1.52521 70.2792 1.32491C70.2575 1.52198 70.207 1.71476 70.1292 1.89703L69.2894 4.09519L70.8491 4.18552Z" fill="#0E80BD"/>
<path d="M82.5176 6.02227C82.3929 6.74629 82.0089 7.39957 81.4377 7.85908C81.1618 8.04058 80.8495 8.15894 80.5229 8.20577C80.1964 8.2526 79.8635 8.22677 79.548 8.13009C79.2287 8.05005 78.9247 7.9178 78.6482 7.73864L78.9781 6.38361C79.175 6.61529 79.436 6.78299 79.728 6.8654C80.3879 6.8654 80.8378 6.59439 81.0778 5.63082L81.9777 1.80664L83.4174 2.13787L82.5176 6.02227Z" fill="#0E80BD"/>
<path d="M89.9864 11.2617L88.4566 10.7197V9.184L86.2369 8.4011L85.3071 9.63567L83.9873 9.03344L88.4566 3.61334L90.1363 4.21558L89.9864 11.2617ZM88.5766 8.00964V5.66093C88.5521 5.47102 88.5521 5.27873 88.5766 5.08881C88.4936 5.26895 88.3932 5.44042 88.2766 5.60071L86.9868 7.43752L88.5766 8.00964Z" fill="#0E80BD"/>
<path d="M99.4048 8.52177L95.5654 11.3523L94.5155 13.4601L93.1657 12.7976L94.2156 10.7199V5.96228L95.7453 6.71507L95.5954 9.39501C95.5833 9.57547 95.5833 9.75655 95.5954 9.93702C95.7038 9.78655 95.8354 9.65441 95.9853 9.54557L98.055 7.8292L99.4048 8.52177Z" fill="#0E80BD"/>
<path d="M103.004 18.7295L101.684 17.8262L101.984 16.3507L100.155 15.0559L98.9548 16.0195L97.605 15.0559L103.274 10.9306L104.744 11.8942L103.004 18.7295ZM102.464 15.2065L103.094 12.9782C103.094 12.7975 103.244 12.6169 103.334 12.4061C103.218 12.5683 103.076 12.7106 102.914 12.8276L101.085 14.3031L102.464 15.2065Z" fill="#0E80BD"/>
<path d="M111.703 19.0308L110.293 17.7962L106.754 21.8613L105.644 20.8977L109.153 16.8326L107.744 15.5981L108.524 14.6947L112.483 18.0672L111.703 19.0308Z" fill="#0E80BD"/>
<path d="M113.593 28.8771L112.603 27.763L114.583 25.9864L112.753 24.0894L110.773 25.8961L109.754 24.7819L114.673 20.3856L115.663 21.4696L113.713 23.2462L115.543 25.2637L117.492 23.5172L118.482 24.6314L113.593 28.8771Z" fill="#0E80BD"/>
<path d="M117.552 34.3876L115.302 31.1356L120.702 27.3415L122.891 30.3527L121.901 31.0452L120.552 29.1482L119.352 29.9913L120.582 31.7378L119.622 32.4304L118.362 30.6839L117.132 31.527L118.542 33.5746L117.552 34.3876Z" fill="#0E80BD"/>
<path d="M27.3859 87.0827C22.7459 77.7473 21.5643 67.0595 24.0524 56.9299C26.5404 46.8003 32.5359 37.8891 40.9672 31.7891C49.3984 25.6892 59.7159 22.7981 70.0753 23.6326C80.4348 24.4672 90.1609 28.9729 97.5153 36.3446C104.041 42.8524 108.343 51.2694 109.803 60.3859C111.264 69.5025 109.808 78.8492 105.644 87.0827L109.843 88.8593C113.173 82.1755 114.899 74.8024 114.883 67.3295C114.568 54.6612 109.335 42.6179 100.298 33.7696C91.2617 24.9212 79.1383 19.9686 66.515 19.9686C53.8917 19.9686 41.7683 24.9212 32.7319 33.7696C23.6954 42.6179 18.4616 54.6612 18.1473 67.3295C18.1314 74.8024 19.8571 82.1755 23.1866 88.8593L27.3859 87.0827Z" fill="#0E80BD"/>
<path d="M124.811 101.025C121.357 100.634 117.951 99.8976 114.643 98.8264C108.644 97.0197 102.855 95.1829 96.9156 93.5268C91.1519 91.7548 85.0406 91.4444 79.1282 92.6234C75.9222 93.3543 72.8738 94.66 70.1296 96.4777C69.3226 97.0087 68.5511 97.5921 67.82 98.2242C67.61 98.4048 67.31 98.8264 67.0701 98.9469C67.76 98.6457 68.4799 98.3747 69.1998 98.1338C78.0483 95.6429 87.3542 95.2614 96.3756 97.0197C99.8883 97.5323 103.372 98.2257 106.814 99.0974C111.565 100.609 116.461 101.619 121.422 102.109C122.85 102.199 124.283 102.199 125.711 102.109L124.811 101.025Z" fill="#0E80BD"/>
<path d="M65.3902 98.2244C64.6338 97.5477 63.8321 96.924 62.9906 96.3575C60.2427 94.54 57.1962 93.225 53.9919 92.4731C48.0884 91.3104 41.9908 91.6206 36.2346 93.3765C30.2355 95.0326 24.2365 96.8694 18.4773 98.646C15.1637 99.7345 11.7455 100.471 8.27887 100.844L7.49899 101.868C8.92323 102.023 10.3568 102.073 11.7883 102.019C16.7608 101.543 21.6681 100.533 26.4261 99.0073C29.8456 98.1642 33.3251 97.4716 36.8345 96.9597C45.8683 95.2109 55.184 95.6027 64.0404 98.104C64.7603 98.3449 65.4802 98.6159 66.1701 98.917C65.9901 98.8267 65.6002 98.4051 65.3902 98.2244Z" fill="#0E80BD"/>
<path d="M121.062 96.0865C119.019 95.7057 117.012 95.1517 115.063 94.4304C110.533 92.7742 106.064 90.5159 101.565 89.0404C96.0788 87.1829 90.345 86.1677 84.5571 86.0292C79.7615 85.9747 75.015 87.0038 70.6692 89.0404C69.1241 89.6714 67.6947 90.5568 66.4399 91.6601C65.1701 90.562 63.7318 89.6773 62.1805 89.0404C57.8348 87.0038 53.0883 85.9747 48.2926 86.0292C42.5048 86.1677 36.771 87.1829 31.2852 89.0404C26.6359 90.5159 22.2866 92.7742 17.7873 94.4304C15.8378 95.1517 13.8309 95.7057 11.7882 96.0865L9.80847 98.6761C18.7171 97.4114 27.3858 93.3464 35.9945 91.5095C41.4971 90.3022 47.1457 89.9066 52.762 90.3352C55.4018 90.5616 57.9969 91.1597 60.4708 92.1118C61.6151 92.5933 62.7186 93.1673 63.7703 93.8281C64.7367 94.392 65.6328 95.0693 66.4399 95.8456C67.2469 95.0693 68.1431 94.392 69.1095 93.8281C70.1612 93.1673 71.2647 92.5933 72.409 92.1118C74.9306 91.1458 77.5771 90.5476 80.2678 90.3352C85.9169 89.9175 91.5964 90.3334 97.1252 91.5698C105.644 93.256 114.313 97.5921 123.041 98.7363L121.062 96.0865Z" fill="#0E80BD"/>
<path d="M48.3826 82.7169C50.3203 82.7063 52.2558 82.8473 54.1717 83.1385V57.3629C54.1717 53.609 54.0817 50.8086 53.9017 48.9618H53.9917C54.7802 50.4453 55.6514 51.8829 56.6013 53.2677L76.4883 83.5902C79.1471 82.9974 81.8635 82.7045 84.5871 82.7169C86.3418 82.7222 88.0947 82.8328 89.8363 83.0481V33.936H78.858V62.6927C78.805 65.0748 78.8952 67.4579 79.1279 69.8291H78.9779C78.1981 68.444 77.3282 67.0287 76.3683 65.5834L55.7315 33.936H43.1334V83.0481C44.875 82.8328 46.6278 82.7222 48.3826 82.7169Z" fill="#F07F22"/>
<path fill-rule="evenodd" clip-rule="evenodd" d="M41.0338 42.9394V37.2182C36.6454 40.9037 33.1145 45.5094 30.6893 50.7116C28.264 55.9138 27.0034 61.5862 26.996 67.3299C26.9836 73.6906 28.5287 79.957 31.4953 85.5775C32.8451 85.156 34.2249 84.7645 35.6046 84.4032C31.9435 77.8299 30.4887 70.2477 31.4558 62.7796C32.4228 55.3114 35.7603 48.3545 40.9738 42.9394H41.0338Z" fill="#0E80BD"/>
<path fill-rule="evenodd" clip-rule="evenodd" d="M56.9916 31.8579L57.8615 33.1527C64.1235 31.5788 70.6919 31.7244 76.8786 33.5743V31.8579H83.8976C78.5157 29.243 72.6142 27.8847 66.6352 27.8847C60.6561 27.8847 54.7546 29.243 49.3728 31.8579H56.9916Z" fill="#0E80BD"/>
<path fill-rule="evenodd" clip-rule="evenodd" d="M91.9962 37.2182V42.9394C97.1895 48.3477 100.515 55.2878 101.481 62.7368C102.448 70.1857 101.005 77.7494 97.3654 84.3128C98.7752 84.6742 100.125 85.0656 101.475 85.4872C104.441 79.8666 105.986 73.6003 105.974 67.2395C105.961 61.5158 104.703 55.8639 102.289 50.6787C99.8747 45.4934 96.362 40.8996 91.9962 37.2182Z" fill="#0E80BD"/>
<path fill-rule="evenodd" clip-rule="evenodd" d="M76.7585 62.3313V38.7538C73.475 37.5799 70.0155 36.9791 66.53 36.9772C64.515 36.97 62.5046 37.1718 60.5309 37.5795L76.7585 62.3313Z" fill="#0E80BD"/>
<path fill-rule="evenodd" clip-rule="evenodd" d="M41.0337 50.8586C37.8985 55.6813 36.2066 61.3055 36.1588 67.0641C36.1109 72.8228 37.7091 78.4745 40.7637 83.3491H41.0337V50.8586Z" fill="#0E80BD"/>
<path fill-rule="evenodd" clip-rule="evenodd" d="M91.9962 50.8586V83.319H92.2662C95.3208 78.4444 96.9189 72.7927 96.8711 67.034C96.8232 61.2754 95.1314 55.6512 91.9962 50.8285V50.8586Z" fill="#0E80BD"/>
<path fill-rule="evenodd" clip-rule="evenodd" d="M56.2712 56.5194V83.6199C58.3447 84.0612 60.3586 84.7486 62.2703 85.6675C63.826 86.2956 65.2658 87.1811 66.5297 88.2872C67.0396 87.3538 70.2191 85.9385 70.759 85.6675C71.943 85.1237 73.1663 84.6707 74.4185 84.3125L56.2712 56.5194Z" fill="#0E80BD"/>
<path d="M5.5493 40.3196L7.559 40.2292L8.63883 38.5129L9.32873 40.4099L11.3084 40.8616L9.71867 42.1263L9.86865 44.1438L8.1889 43.0597L6.32918 43.8125L6.8691 41.8553L5.5493 40.3196Z" fill="#F07F22"/>
<path d="M1.79959 51.3102L3.7493 50.8586L4.49918 48.9916L5.54902 50.708L7.55872 50.8586L6.23892 52.3641L6.71885 54.3214L4.85913 53.5084L3.14939 54.5924L3.32936 52.5749L1.79959 51.3102Z" fill="#F07F22"/>
<path d="M0 62.7529L1.85972 61.97L2.27965 60.0127L3.59945 61.5183L5.57915 61.3075L4.55931 63.0239L5.36919 64.8908L3.41948 64.409L1.91971 65.764L1.73974 63.7767L0 62.7529Z" fill="#F07F22"/>
<path d="M0.21019 74.3759L1.91993 73.2617L1.97992 71.2443L3.53969 72.5391L5.48939 71.9669L4.7395 73.8339L5.87933 75.5201L3.86964 75.3997L2.63982 76.9956L2.1299 75.0383L0.21019 74.3759Z" fill="#F07F22"/>
<path d="M2.45964 85.7579L3.92942 84.3728L3.65946 82.3854L5.3992 83.349L7.22892 82.4758L6.83898 84.4631L8.24876 85.8784L6.23907 86.1193L5.30921 87.926L4.43934 86.0892L2.45964 85.7579Z" fill="#F07F22"/>
<path d="M127.451 40.3196L125.441 40.2292L124.391 38.5129L123.671 40.4099L121.691 40.8616L123.281 42.1263L123.131 44.1438L124.811 43.0597L126.671 43.8125L126.161 41.8553L127.451 40.3196Z" fill="#F07F22"/>
<path d="M131.2 51.3102L129.251 50.8586L128.501 48.9916L127.451 50.708L125.441 50.8586L126.791 52.3641L126.281 54.3214L128.141 53.5084L129.851 54.5924L129.671 52.5749L131.2 51.3102Z" fill="#F07F22"/>
<path d="M133 62.7529L131.14 61.97L130.75 60.0127L129.431 61.5183L127.421 61.3075L128.471 63.0239L127.631 64.8908L129.581 64.409L131.08 65.764L131.26 63.7767L133 62.7529Z" fill="#F07F22"/>
<path d="M132.79 74.3759L131.08 73.2617L131.02 71.2443L129.46 72.5391L127.511 71.9669L128.26 73.8339L127.121 75.5201L129.13 75.3997L130.36 76.9956L130.87 75.0383L132.79 74.3759Z" fill="#F07F22"/>
<path d="M130.54 85.7579L129.07 84.3728L129.34 82.3854L127.601 83.349L125.771 82.4758L126.161 84.4631L124.751 85.8784L126.761 86.1193L127.721 87.926L128.56 86.0892L130.54 85.7579Z" fill="#F07F22"/>
</svg>
