<svg width="133" height="106" viewBox="0 0 133 106" fill="none" xmlns="http://www.w3.org/2000/svg">
<path d="M127.84 104.969L127.151 104.156C123.431 104.156 119.682 103.915 115.992 103.554C112.962 103.325 109.953 102.862 106.994 102.169C101.518 100.564 95.8866 99.5549 90.1962 99.1575C83.4033 98.9274 76.6201 99.8435 70.1292 101.868L69.9493 102.048C69.0381 102.962 67.8028 103.475 66.5148 103.475C65.2268 103.475 63.9915 102.962 63.0803 102.048L62.9903 101.777C56.4995 99.7531 49.7163 98.8371 42.9234 99.0672C37.233 99.4645 31.6016 100.474 26.1259 102.078C23.1662 102.771 20.1578 103.234 17.1273 103.463C13.4378 103.825 9.6884 104.066 5.96896 104.066L4.73915 105.511L62.2404 104.758C62.4504 104.758 63.0203 105.24 63.2303 105.36C63.6218 105.55 64.0347 105.692 64.4601 105.782C65.7539 106.073 67.0957 106.073 68.3895 105.782C69.258 105.583 70.0754 105.203 70.7891 104.668L128.23 105.421L127.84 104.969Z" fill="#0E80BD"/>
<path d="M17.9973 91.0275L19.5871 90.4253C15.7207 82.4331 13.9399 73.5859 14.4117 64.7137C14.8836 55.8415 17.5926 47.235 22.2848 39.7015C26.9769 32.168 33.4984 25.9544 41.2374 21.6435C48.9764 17.3327 57.6794 15.0659 66.53 15.0558C75.3851 15.0335 84.1 17.2747 91.8539 21.5681C99.6077 25.8616 106.145 32.0659 110.85 39.5967C115.555 47.1275 118.273 55.7367 118.748 64.6134C119.222 73.4901 117.438 82.3419 113.563 90.3349L115.153 90.9372C116.052 91.2684 116.982 91.5695 117.912 91.8405C121.619 84.0854 123.536 75.591 123.521 66.9894C123.506 58.3878 121.559 49.9003 117.824 42.1584C114.09 34.4165 108.666 27.6194 101.953 22.2729C95.2411 16.9264 87.4144 13.1681 79.0555 11.2776C70.6966 9.38704 62.0206 9.41293 53.673 11.3533C45.3254 13.2938 37.5211 17.0987 30.8407 22.4852C24.1603 27.8717 18.7757 34.701 15.0876 42.465C11.3995 50.2291 9.50282 58.7281 9.53859 67.3296C9.494 75.828 11.3601 84.2269 14.9978 91.9007C16.0476 91.6599 16.9775 91.3587 17.9973 91.0275Z" fill="#0E80BD"/>
<path d="M15.2076 34.3274L14.0078 33.4843C14.3564 33.4234 14.6915 33.301 14.9976 33.1229C15.2637 32.9314 15.4967 32.6975 15.6875 32.4304C15.7834 32.2996 15.8639 32.1581 15.9275 32.0088C15.9517 31.8896 15.9517 31.7667 15.9275 31.6475C15.9443 31.5478 15.9443 31.446 15.9275 31.3463C15.8951 31.2564 15.8311 31.1814 15.7475 31.1356C15.6397 31.1046 15.5254 31.1046 15.4176 31.1356H14.9976L14.5477 31.3765L14.0078 31.7077C13.6253 31.975 13.1815 32.1408 12.718 32.1895C12.3102 32.2248 11.904 32.1067 11.5781 31.8582C11.3182 31.7007 11.1097 31.4705 10.9782 31.1958C10.8347 30.9505 10.7717 30.666 10.7983 30.3828C10.7998 30.0826 10.861 29.7857 10.9782 29.5095C11.0965 29.1972 11.2581 28.9033 11.4582 28.6363C11.6025 28.3431 11.7839 28.0698 11.9981 27.8233C12.1579 27.6299 12.3509 27.4667 12.568 27.3415L13.7078 28.1244C13.5656 28.1532 13.432 28.2151 13.3179 28.3051L12.9879 28.546L12.658 28.817L12.418 29.1482C12.3255 29.2652 12.2545 29.3977 12.208 29.5396C12.181 29.6586 12.181 29.7821 12.208 29.901C12.1273 29.9595 12.0564 30.0307 11.9981 30.1118L12.178 30.3225C12.2766 30.3468 12.3795 30.3468 12.478 30.3225H12.8379L13.2279 30.1118H13.8578C14.0671 29.9476 14.2996 29.8156 14.5477 29.7203C14.7565 29.6188 14.9787 29.5478 15.2076 29.5095C15.4152 29.4648 15.6299 29.4648 15.8375 29.5095C16.0633 29.5723 16.2765 29.6742 16.4674 29.8106C16.7388 29.9858 16.965 30.2232 17.1273 30.5032C17.2438 30.7584 17.3051 31.0355 17.3073 31.3162C17.2812 31.6162 17.2104 31.9106 17.0973 32.1895C16.962 32.509 16.7909 32.8121 16.5874 33.0928C16.3915 33.3733 16.1706 33.6353 15.9275 33.8757C15.7116 34.0619 15.4689 34.2142 15.2076 34.3274Z" fill="#0E80BD"/>
<path d="M23.1563 24.7218L22.0165 26.0166L20.0668 25.6553H19.6768H19.3469C19.2495 25.6231 19.1443 25.6231 19.0469 25.6553C18.9638 25.6838 18.8908 25.7361 18.837 25.8058L18.597 26.1069L20.4867 27.7631L19.4969 28.8772L14.5476 24.511L16.1074 22.7344C17.1572 21.5601 18.1471 21.3493 19.1069 22.1322C19.2712 22.2812 19.4127 22.4537 19.5269 22.6441C19.6182 22.8234 19.679 23.0168 19.7068 23.2162C19.7368 23.4158 19.7368 23.6188 19.7068 23.8185C19.6643 24.0374 19.5937 24.25 19.4969 24.4508C19.5956 24.4287 19.698 24.4287 19.7968 24.4508H20.5167L20.9966 24.3906L23.1563 24.7218ZM16.3773 24.0895L17.7571 25.2939L18.1771 24.8121C18.3632 24.6172 18.4702 24.3595 18.477 24.0895C18.4761 23.9568 18.446 23.8259 18.389 23.7062C18.3319 23.5865 18.2494 23.4809 18.1471 23.3969C17.7271 23.0054 17.2772 23.0958 16.8273 23.6077L16.3773 24.0895Z" fill="#0E80BD"/>
<path d="M28.9155 19.5724L27.7157 20.6263L26.3959 19.8434L24.6261 21.4092L25.2261 22.7943L23.9962 23.8783L21.4766 17.314L22.7964 16.1697L28.9155 19.5724ZM25.376 19.211L23.3663 18.0668L22.9164 17.7054C23.0148 17.8125 23.0958 17.9344 23.1564 18.0668L23.9962 20.3251L25.376 19.211Z" fill="#0E80BD"/>
<path d="M36.8944 14.2126L35.6646 15.0558L33.5349 11.7435C33.2949 11.3821 33.055 10.9907 32.815 10.539C32.965 10.9305 33.055 11.2015 33.115 11.3821L34.2248 15.9892L33.2049 16.6517L29.4855 13.6405L28.7956 13.0684L29.7555 14.4836L31.7352 17.4948L30.5953 18.2175L26.9959 12.7372L28.8256 11.5628L32.0951 14.1223C32.3467 14.3193 32.5778 14.5412 32.785 14.7848C32.785 14.4535 32.575 14.1223 32.485 13.8513L31.5252 9.84645L33.2949 8.70221L36.8944 14.2126Z" fill="#0E80BD"/>
<path d="M44.6932 10.5994L43.1934 11.2619L42.1735 10.1176L40.0439 11.0812L40.2238 12.5868L38.7541 13.2492L38.2441 6.26333L39.8339 5.54065L44.6932 10.5994ZM41.3937 9.21427L39.8339 7.4678L39.5039 6.98601C39.518 7.17646 39.518 7.36768 39.5039 7.55813L39.7739 9.90684L41.3937 9.21427Z" fill="#0E80BD"/>
<path d="M49.5523 2.13788L48.7424 6.8353L49.4323 9.09367L47.9926 9.51524L47.3327 7.28697L44.0632 3.82413L45.6829 3.31223L47.4226 5.35983L47.7226 5.84161C47.7107 5.66114 47.7107 5.48007 47.7226 5.2996L47.9926 2.61967L49.5523 2.13788Z" fill="#0E80BD"/>
<path d="M57.3815 7.28722L53.5121 8.0099L52.2823 1.53589L56.0317 0.843323L56.2417 2.01768L53.992 2.43924L54.262 3.8846L56.3917 3.49315L56.6016 4.6675L54.502 5.08907L54.7719 6.56454L57.1715 6.02253L57.3815 7.28722Z" fill="#0E80BD"/>
<path d="M64.7603 0L62.9906 6.74501H61.3108L58.5812 0.451675H60.171L61.8807 4.93831C61.9606 5.14289 62.0208 5.35462 62.0607 5.57066C62.0342 5.34057 62.0342 5.10818 62.0607 4.87809L63.2305 0H64.7603Z" fill="#0E80BD"/>
<path d="M73.1588 6.92568H71.539L71.1491 5.4201H68.8094L68.2395 6.86546H66.6498L69.4093 0H71.1791L73.1588 6.92568ZM70.8491 4.18552L70.2792 1.92715C70.2603 1.72685 70.2603 1.52521 70.2792 1.32491C70.2575 1.52198 70.207 1.71476 70.1292 1.89703L69.2894 4.09519L70.8491 4.18552Z" fill="#0E80BD"/>
<path d="M82.5176 6.02227C82.3929 6.74629 82.0089 7.39957 81.4377 7.85908C81.1618 8.04058 80.8495 8.15894 80.5229 8.20577C80.1964 8.2526 79.8635 8.22677 79.548 8.13009C79.2287 8.05005 78.9247 7.9178 78.6482 7.73864L78.9781 6.38361C79.175 6.61529 79.436 6.78299 79.728 6.8654C80.3879 6.8654 80.8378 6.59439 81.0778 5.63082L81.9777 1.80664L83.4174 2.13787L82.5176 6.02227Z" fill="#0E80BD"/>
<path d="M89.9864 11.2617L88.4566 10.7197V9.184L86.2369 8.4011L85.3071 9.63567L83.9873 9.03344L88.4566 3.61334L90.1363 4.21558L89.9864 11.2617ZM88.5766 8.00964V5.66093C88.5521 5.47102 88.5521 5.27873 88.5766 5.08881C88.4936 5.26895 88.3932 5.44042 88.2766 5.60071L86.9868 7.43752L88.5766 8.00964Z" fill="#0E80BD"/>
<path d="M99.4048 8.52177L95.5654 11.3523L94.5155 13.4601L93.1657 12.7976L94.2156 10.7199V5.96228L95.7453 6.71507L95.5954 9.39501C95.5833 9.57547 95.5833 9.75655 95.5954 9.93702C95.7038 9.78655 95.8354 9.65441 95.9853 9.54557L98.055 7.8292L99.4048 8.52177Z" fill="#0E80BD"/>
<path d="M103.004 18.7295L101.684 17.8262L101.984 16.3507L100.155 15.0559L98.9548 16.0195L97.605 15.0559L103.274 10.9306L104.744 11.8942L103.004 18.7295ZM102.464 15.2065L103.094 12.9782C103.094 12.7975 103.244 12.6169 103.334 12.4061C103.218 12.5683 103.076 12.7106 102.914 12.8276L101.085 14.3031L102.464 15.2065Z" fill="#0E80BD"/>
<path d="M111.703 19.0308L110.293 17.7962L106.754 21.8613L105.644 20.8977L109.153 16.8326L107.744 15.5981L108.524 14.6947L112.483 18.0672L111.703 19.0308Z" fill="#0E80BD"/>
<path d="M113.593 28.8771L112.603 27.763L114.583 25.9864L112.753 24.0894L110.773 25.8961L109.754 24.7819L114.673 20.3856L115.663 21.4696L113.713 23.2462L115.543 25.2637L117.492 23.5172L118.482 24.6314L113.593 28.8771Z" fill="#0E80BD"/>
<path d="M117.552 34.3876L115.302 31.1356L120.702 27.3415L122.891 30.3527L121.901 31.0452L120.552 29.1482L119.352 29.9913L120.582 31.7378L119.622 32.4304L118.362 30.6839L117.132 31.527L118.542 33.5746L117.552 34.3876Z" fill="#0E80BD"/>
<path d="M27.3859 87.0827C22.7459 77.7473 21.5643 67.0595 24.0524 56.9299C26.5404 46.8003 32.5359 37.8891 40.9672 31.7891C49.3984 25.6892 59.7159 22.7981 70.0753 23.6326C80.4348 24.4672 90.1609 28.9729 97.5153 36.3446C104.041 42.8524 108.343 51.2694 109.803 60.3859C111.264 69.5025 109.808 78.8492 105.644 87.0827L109.843 88.8593C113.173 82.1755 114.899 74.8024 114.883 67.3295C114.568 54.6612 109.335 42.6179 100.298 33.7696C91.2617 24.9212 79.1383 19.9686 66.515 19.9686C53.8917 19.9686 41.7683 24.9212 32.7319 33.7696C23.6954 42.6179 18.4616 54.6612 18.1473 67.3295C18.1314 74.8024 19.8571 82.1755 23.1866 88.8593L27.3859 87.0827Z" fill="#0E80BD"/>
<path d="M124.811 101.025C121.357 100.634 117.951 99.8976 114.643 98.8264C108.644 97.0197 102.855 95.1829 96.9156 93.5268C91.1519 91.7548 85.0406 91.4444 79.1282 92.6234C75.9222 93.3543 72.8738 94.66 70.1296 96.4777C69.3226 97.0087 68.5511 97.5921 67.82 98.2242C67.61 98.4048 67.31 98.8264 67.0701 98.9469C67.76 98.6457 68.4799 98.3747 69.1998 98.1338C78.0483 95.6429 87.3542 95.2614 96.3756 97.0197C99.8883 97.5323 103.372 98.2257 106.814 99.0974C111.565 100.609 116.461 101.619 121.422 102.109C122.85 102.199 124.283 102.199 125.711 102.109L124.811 101.025Z" fill="#0E80BD"/>
<path d="M65.3902 98.2244C64.6338 97.5477 63.8321 96.924 62.9906 96.3575C60.2427 94.54 57.1962 93.225 53.9919 92.4731C48.0884 91.3104 41.9908 91.6206 36.2346 93.3765C30.2355 95.0326 24.2365 96.8694 18.4773 98.646C15.1637 99.7345 11.7455 100.471 8.27887 100.844L7.49899 101.868C8.92323 102.023 10.3568 102.073 11.7883 102.019C16.7608 101.543 21.6681 100.533 26.4261 99.0073C29.8456 98.1642 33.3251 97.4716 36.8345 96.9597C45.8683 95.2109 55.184 95.6027 64.0404 98.104C64.7603 98.3449 65.4802 98.6159 66.1701 98.917C65.9901 98.8267 65.6002 98.4051 65.3902 98.2244Z" fill="#0E80BD"/>
<path d="M121.062 96.0865C119.019 95.7057 117.012 95.1517 115.063 94.4304C110.533 92.7742 106.064 90.5159 101.565 89.0404C96.0788 87.1829 90.345 86.1677 84.5571 86.0292C79.7615 85.9747 75.015 87.0038 70.6692 89.0404C69.1241 89.6714 67.6947 90.5568 66.4399 91.6601C65.1701 90.562 63.7318 89.6773 62.1805 89.0404C57.8348 87.0038 53.0883 85.9747 48.2926 86.0292C42.5048 86.1677 36.771 87.1829 31.2852 89.0404C26.6359 90.5159 22.2866 92.7742 17.7873 94.4304C15.8378 95.1517 13.8309 95.7057 11.7882 96.0865L9.80847 98.6761C18.7171 97.4114 27.3858 93.3464 35.9945 91.5095C41.4971 90.3022 47.1457 89.9066 52.762 90.3352C55.4018 90.5616 57.9969 91.1597 60.4708 92.1118C61.6151 92.5933 62.7186 93.1673 63.7703 93.8281C64.7367 94.392 65.6328 95.0693 66.4399 95.8456C67.2469 95.0693 68.1431 94.392 69.1095 93.8281C70.1612 93.1673 71.2647 92.5933 72.409 92.1118C74.9306 91.1458 77.5771 90.5476 80.2678 90.3352C85.9169 89.9175 91.5964 90.3334 97.1252 91.5698C105.644 93.256 114.313 97.5921 123.041 98.7363L121.062 96.0865Z" fill="#0E80BD"/>
<path d="M48.3826 82.7169C50.3203 82.7063 52.2558 82.8473 54.1717 83.1385V57.3629C54.1717 53.609 54.0817 50.8086 53.9017 48.9618H53.9917C54.7802 50.4453 55.6514 51.8829 56.6013 53.2677L76.4883 83.5902C79.1471 82.9974 81.8635 82.7045 84.5871 82.7169C86.3418 82.7222 88.0947 82.8328 89.8363 83.0481V33.936H78.858V62.6927C78.805 65.0748 78.8952 67.4579 79.1279 69.8291H78.9779C78.1981 68.444 77.3282 67.0287 76.3683 65.5834L55.7315 33.936H43.1334V83.0481C44.875 82.8328 46.6278 82.7222 48.3826 82.7169Z" fill="#F07F22"/>
<path fill-rule="evenodd" clip-rule="evenodd" d="M41.0338 42.9394V37.2182C36.6454 40.9037 33.1145 45.5094 30.6893 50.7116C28.264 55.9138 27.0034 61.5862 26.996 67.3299C26.9836 73.6906 28.5287 79.957 31.4953 85.5775C32.8451 85.156 34.2249 84.7645 35.6046 84.4032C31.9435 77.8299 30.4887 70.2477 31.4558 62.7796C32.4228 55.3114 35.7603 48.3545 40.9738 42.9394H41.0338Z" fill="#0E80BD"/>
<path fill-rule="evenodd" clip-rule="evenodd" d="M56.9916 31.8579L57.8615 33.1527C64.1235 31.5788 70.6919 31.7244 76.8786 33.5743V31.8579H83.8976C78.5157 29.243 72.6142 27.8847 66.6352 27.8847C60.6561 27.8847 54.7546 29.243 49.3728 31.8579H56.9916Z" fill="#0E80BD"/>
<path fill-rule="evenodd" clip-rule="evenodd" d="M91.9962 37.2182V42.9394C97.1895 48.3477 100.515 55.2878 101.481 62.7368C102.448 70.1857 101.005 77.7494 97.3654 84.3128C98.7752 84.6742 100.125 85.0656 101.475 85.4872C104.441 79.8666 105.986 73.6003 105.974 67.2395C105.961 61.5158 104.703 55.8639 102.289 50.6787C99.8747 45.4934 96.362 40.8996 91.9962 37.2182Z" fill="#0E80BD"/>
<path fill-rule="evenodd" clip-rule="evenodd" d="M76.7585 62.3313V38.7538C73.475 37.5799 70.0155 36.9791 66.53 36.9772C64.515 36.97 62.5046 37.1718 60.5309 37.5795L76.7585 62.3313Z" fill="#0E80BD"/>
<path fill-rule="evenodd" clip-rule="evenodd" d="M41.0337 50.8586C37.8985 55.6813 36.2066 61.3055 36.1588 67.0641C36.1109 72.8228 37.7091 78.4745 40.7637 83.3491H41.0337V50.8586Z" fill="#0E80BD"/>
<path fill-rule="evenodd" clip-rule="evenodd" d="M91.9962 50.8586V83.319H92.2662C95.3208 78.4444 96.9189 72.7927 96.8711 67.034C96.8232 61.2754 95.1314 55.6512 91.9962 50.8285V50.8586Z" fill="#0E80BD"/>
<path fill-rule="evenodd" clip-rule="evenodd" d="M56.2712 56.5194V83.6199C58.3447 84.0612 60.3586 84.7486 62.2703 85.6675C63.826 86.2956 65.2658 87.1811 66.5297 88.2872C67.0396 87.3538 70.2191 85.9385 70.759 85.6675C71.943 85.1237 73.1663 84.6707 74.4185 84.3125L56.2712 56.5194Z" fill="#0E80BD"/>
<path d="M5.5493 40.3196L7.559 40.2292L8.63883 38.5129L9.32873 40.4099L11.3084 40.8616L9.71867 42.1263L9.86865 44.1438L8.1889 43.0597L6.32918 43.8125L6.8691 41.8553L5.5493 40.3196Z" fill="#F07F22"/>
<path d="M1.79959 51.3102L3.7493 50.8586L4.49918 48.9916L5.54902 50.708L7.55872 50.8586L6.23892 52.3641L6.71885 54.3214L4.85913 53.5084L3.14939 54.5924L3.32936 52.5749L1.79959 51.3102Z" fill="#F07F22"/>
<path d="M0 62.7529L1.85972 61.97L2.27965 60.0127L3.59945 61.5183L5.57915 61.3075L4.55931 63.0239L5.36919 64.8908L3.41948 64.409L1.91971 65.764L1.73974 63.7767L0 62.7529Z" fill="#F07F22"/>
<path d="M0.21019 74.3759L1.91993 73.2617L1.97992 71.2443L3.53969 72.5391L5.48939 71.9669L4.7395 73.8339L5.87933 75.5201L3.86964 75.3997L2.63982 76.9956L2.1299 75.0383L0.21019 74.3759Z" fill="#F07F22"/>
<path d="M2.45964 85.7579L3.92942 84.3728L3.65946 82.3854L5.3992 83.349L7.22892 82.4758L6.83898 84.4631L8.24876 85.8784L6.23907 86.1193L5.30921 87.926L4.43934 86.0892L2.45964 85.7579Z" fill="#F07F22"/>
<path d="M127.451 40.3196L125.441 40.2292L124.391 38.5129L123.671 40.4099L121.691 40.8616L123.281 42.1263L123.131 44.1438L124.811 43.0597L126.671 43.8125L126.161 41.8553L127.451 40.3196Z" fill="#F07F22"/>
<path d="M131.2 51.3102L129.251 50.8586L128.501 48.9916L127.451 50.708L125.441 50.8586L126.791 52.3641L126.281 54.3214L128.141 53.5084L129.851 54.5924L129.671 52.5749L131.2 51.3102Z" fill="#F07F22"/>
<path d="M133 62.7529L131.14 61.97L130.75 60.0127L129.431 61.5183L127.421 61.3075L128.471 63.0239L127.631 64.8908L129.581 64.409L131.08 65.764L131.26 63.7767L133 62.7529Z" fill="#F07F22"/>
<path d="M132.79 74.3759L131.08 73.2617L131.02 71.2443L129.46 72.5391L127.511 71.9669L128.26 73.8339L127.121 75.5201L129.13 75.3997L130.36 76.9956L130.87 75.0383L132.79 74.3759Z" fill="#F07F22"/>
<path d="M130.54 85.7579L129.07 84.3728L129.34 82.3854L127.601 83.349L125.771 82.4758L126.161 84.4631L124.751 85.8784L126.761 86.1193L127.721 87.926L128.56 86.0892L130.54 85.7579Z" fill="#F07F22"/>
</svg>
